<svg class="main-svg" xmlns="http://www.w3.org/2000/svg" xmlns:xlink="http://www.w3.org/1999/xlink" width="1100" height="650" style="" viewBox="0 0 1100 650"><rect x="0" y="0" width="1100" height="650" style="fill: rgb(255, 255, 255); fill-opacity: 1;"/><defs id="defs-fafef7"><g class="clips"/><g class="gradients"/><g class="patterns"/></defs><g class="bglayer"/><g class="layer-below"><g class="imagelayer"/><g class="shapelayer"/></g><g class="cartesianlayer"/><g class="polarlayer"/><g class="smithlayer"/><g class="ternarylayer"/><g class="geolayer"/><g class="funnelarealayer"/><g class="pielayer"/><g class="iciclelayer"/><g class="treemaplayer"/><g class="sunburstlayer"><g class="trace sunburst" stroke-linejoin="round" style="opacity: 1;"><g class="slice cursor-pointer"><path class="surface" d="M560,330L680,330A120,120 0,0,0 484.92189302583324,236.38761912452193L560,330A0,0 0,0,1 560,330Z" style="pointer-events: none; stroke-width: 1; fill: rgb(99, 110, 250); fill-opacity: 1; stroke: rgb(255, 255, 255); stroke-opacity: 1;"/><g class="slicetext"><text data-notex="1" class="slicetext" text-anchor="middle" x="0" y="0" style="font-family: 'Open Sans', verdana, arial, sans-serif; font-size: 12px; fill: rgb(255, 255, 255); fill-opacity: 1; white-space: pre;" transform="translate(587.3018901611719,277.6058050265529)">United States</text></g></g><g class="slice cursor-pointer"><path class="surface" d="M560,330L484.92189302583324,236.38761912452193A120,120 0,0,0 453.4758316700772,385.250353497677L560,330A0,0 0,0,1 560,330Z" style="pointer-events: none; stroke-width: 1; fill: rgb(239, 85, 59); fill-opacity: 1; stroke: rgb(255, 255, 255); stroke-opacity: 1;"/><g class="slicetext"><text data-notex="1" class="slicetext" text-anchor="middle" x="0" y="0" style="font-family: 'Open Sans', verdana, arial, sans-serif; font-size: 12px; fill: rgb(68, 68, 68); fill-opacity: 1; white-space: pre;" transform="translate(488.14403615812444,319.32100266891183)">China</text></g></g><g class="slice cursor-pointer"><path class="surface" d="M560,330L453.4758316700772,385.250353497677A120,120 0,0,0 475.0286567626555,414.7341184437614L560,330A0,0 0,0,1 560,330Z" style="pointer-events: none; stroke-width: 1; fill: rgb(0, 204, 150); fill-opacity: 1; stroke: rgb(255, 255, 255); stroke-opacity: 1;"/><g class="slicetext"><text data-notex="1" class="slicetext" text-anchor="middle" x="0" y="0" style="font-family: 'Open Sans', verdana, arial, sans-serif; font-size: 12px; fill: rgb(68, 68, 68); fill-opacity: 1; white-space: pre;" transform="translate(489.2939121507929,387.2607499190791)rotate(-36.16704805491986)">Canada</text></g></g><g class="slice cursor-pointer"><path class="surface" d="M560,330L475.0286567626555,414.7341184437614A120,120 0,0,0 502.63357561867247,435.3996838406142L560,330A0,0 0,0,1 560,330Z" style="pointer-events: none; stroke-width: 1; fill: rgb(171, 99, 250); fill-opacity: 1; stroke: rgb(255, 255, 255); stroke-opacity: 1;"/><g class="slicetext"><text data-notex="1" class="slicetext" text-anchor="middle" x="0" y="0" style="font-family: 'Open Sans', verdana, arial, sans-serif; font-size: 12px; fill: rgb(68, 68, 68); fill-opacity: 1; white-space: pre;" transform="translate(506.12482758286706,409.4749394239203)rotate(-53.18077803203664)">Spain</text></g></g><g class="slice cursor-pointer"><path class="surface" d="M560,330L502.63357561867247,435.3996838406142A120,120 0,0,0 529.173244360721,445.9728896628698L560,330A0,0 0,0,1 560,330Z" style="pointer-events: none; stroke-width: 1; fill: rgb(255, 161, 90); fill-opacity: 1; stroke: rgb(255, 255, 255); stroke-opacity: 1;"/><g class="slicetext"><text data-notex="1" class="slicetext" text-anchor="middle" x="0" y="0" style="font-family: 'Open Sans', verdana, arial, sans-serif; font-size: 12px; fill: rgb(68, 68, 68); fill-opacity: 1; white-space: pre;" transform="translate(527.5840295997477,423.5256911664279)rotate(-68.27803203661324)">Brazil</text></g></g><g class="slice cursor-pointer"><path class="surface" d="M560,330L529.173244360721,445.9728896628698A120,120 0,0,0 554.1552606847293,449.8575780763842L560,330A0,0 0,0,1 560,330Z" style="pointer-events: none; stroke-width: 1; fill: rgb(25, 211, 243); fill-opacity: 1; stroke: rgb(255, 255, 255); stroke-opacity: 1;"/><g class="slicetext"><text data-notex="1" class="slicetext" text-anchor="middle" x="0" y="0" style="font-family: 'Open Sans', verdana, arial, sans-serif; font-size: 12px; fill: rgb(68, 68, 68); fill-opacity: 1; white-space: pre;" transform="translate(548.8344691462186,431.0911397649009)rotate(-81.16132723112128)">India</text></g></g><g class="slice cursor-pointer"><path class="surface" d="M560,330L554.1552606847293,449.8575780763842A120,120 0,0,0 577.194213149978,448.76177429692234L560,330A0,0 0,0,1 560,330Z" style="pointer-events: none; stroke-width: 1; fill: rgb(255, 102, 146); fill-opacity: 1; stroke: rgb(255, 255, 255); stroke-opacity: 1;"/><g class="slicetext"><text data-notex="1" class="slicetext" text-anchor="middle" x="0" y="0" style="font-family: 'Open Sans', verdana, arial, sans-serif; font-size: 12px; fill: rgb(68, 68, 68); fill-opacity: 1; white-space: pre;" transform="translate(560.3522120964741,429.89372297579143)scale(0.9764610328951469)rotate(87.27688787185355)">Russia</text></g></g><g class="slice cursor-pointer"><path class="surface" d="M560,330L577.194213149978,448.76177429692234A120,120 0,0,0 599.2810926577639,443.3886932617718L560,330A0,0 0,0,1 560,330Z" style="pointer-events: none; stroke-width: 1; fill: rgb(182, 232, 128); fill-opacity: 1; stroke: rgb(255, 255, 255); stroke-opacity: 1;"/><g class="slicetext"><text data-notex="1" class="slicetext" text-anchor="middle" x="0" y="0" style="font-family: 'Open Sans', verdana, arial, sans-serif; font-size: 12px; fill: rgb(68, 68, 68); fill-opacity: 1; white-space: pre;" transform="translate(579.3065504732394,427.407839796756)scale(0.9478840525602591)rotate(76.32723112128144)">Mexico</text></g></g><g class="slice cursor-pointer"><path class="surface" d="M560,330L599.2810926577639,443.3886932617718A120,120 0,0,0 617.3874709663506,435.38822598415L560,330A0,0 0,0,1 560,330Z" style="pointer-events: none; stroke-width: 1; fill: rgb(255, 151, 255); fill-opacity: 1; stroke: rgb(255, 255, 255); stroke-opacity: 1;"/><g class="slicetext"><text data-notex="1" class="slicetext" text-anchor="middle" x="0" y="0" style="font-family: 'Open Sans', verdana, arial, sans-serif; font-size: 12px; fill: rgb(68, 68, 68); fill-opacity: 1; white-space: pre;" transform="translate(593.4661456185422,412.5223055827315)scale(0.6091983959784906)rotate(66.16132723112128)">United Kingdom</text></g></g><g class="slice cursor-pointer"><path class="surface" d="M560,330L617.3874709663506,435.38822598415A120,120 0,0,0 632.9657907490787,425.26800816833355L560,330A0,0 0,0,1 560,330Z" style="pointer-events: none; stroke-width: 1; fill: rgb(254, 203, 82); fill-opacity: 1; stroke: rgb(255, 255, 255); stroke-opacity: 1;"/><g class="slicetext"><text data-notex="1" class="slicetext" text-anchor="middle" x="0" y="0" style="font-family: 'Open Sans', verdana, arial, sans-serif; font-size: 12px; fill: rgb(68, 68, 68); fill-opacity: 1; white-space: pre;" transform="translate(610.8971474627701,414.64901755808256)scale(0.7628865793682164)rotate(56.99084668192222)">Australia</text></g></g><g class="slice cursor-pointer"><path class="surface" d="M560,330L632.9657907490787,425.26800816833355A120,120 0,0,0 644.2235518369782,415.4774433167244L560,330A0,0 0,0,1 560,330Z" style="pointer-events: none; stroke-width: 1; fill: rgb(198, 202, 253); fill-opacity: 1; stroke: rgb(255, 255, 255); stroke-opacity: 1;"/><g class="slicetext"><text data-notex="1" class="slicetext" text-anchor="middle" x="0" y="0" style="font-family: 'Open Sans', verdana, arial, sans-serif; font-size: 12px; fill: rgb(68, 68, 68); fill-opacity: 1; white-space: pre;" transform="translate(627.319274145742,412.43336667543355)scale(0.7328935192151402)rotate(48.987414187643026)">Japan</text></g></g><g class="slice cursor-pointer"><path class="surface" d="M560,330L644.2235518369782,415.4774433167244A120,120 0,0,0 654.0009270115361,404.59105657498003L560,330A0,0 0,0,1 560,330Z" style="pointer-events: none; stroke-width: 1; fill: rgb(247, 167, 153); fill-opacity: 1; stroke: rgb(255, 255, 255); stroke-opacity: 1;"/><g class="slicetext"><text data-notex="1" class="slicetext" text-anchor="middle" x="0" y="0" style="font-family: 'Open Sans', verdana, arial, sans-serif; font-size: 12px; fill: rgb(68, 68, 68); fill-opacity: 1; white-space: pre;" transform="translate(632.8571814131383,399.2269517468002)scale(0.6269048249296775)rotate(41.92791762013735)">Indonesia</text></g></g><g class="slice cursor-pointer"><path class="surface" d="M560,330L654.0009270115361,404.59105657498003A120,120 0,0,0 661.9279813853683,393.3299819256568L560,330A0,0 0,0,1 560,330Z" style="pointer-events: none; stroke-width: 1; fill: rgb(51, 255, 201); fill-opacity: 1; stroke: rgb(255, 255, 255); stroke-opacity: 1;"/><g class="slicetext"><text data-notex="1" class="slicetext" text-anchor="middle" x="0" y="0" style="font-family: 'Open Sans', verdana, arial, sans-serif; font-size: 12px; fill: rgb(68, 68, 68); fill-opacity: 1; white-space: pre;" transform="translate(641.9140389164548,391.04089591008596)scale(0.6139808582227302)rotate(35.14302059496572)">Germany</text></g></g><g class="slice cursor-pointer"><path class="surface" d="M560,330L661.9279813853683,393.3299819256568A120,120 0,0,0 667.5530899385515,383.2196659578943L560,330A0,0 0,0,1 560,330Z" style="pointer-events: none; stroke-width: 1; fill: rgb(224, 198, 253); fill-opacity: 1; stroke: rgb(255, 255, 255); stroke-opacity: 1;"/><g class="slicetext"><text data-notex="1" class="slicetext" text-anchor="middle" x="0" y="0" style="font-family: 'Open Sans', verdana, arial, sans-serif; font-size: 12px; fill: rgb(68, 68, 68); fill-opacity: 1; white-space: pre;" transform="translate(652.7811941711318,384.62294513025057)scale(0.5829532881454106)rotate(29.09038901601832)">France</text></g></g><g class="slice cursor-pointer"><path class="surface" d="M560,330L667.5530899385515,383.2196659578943A120,120 0,0,0 671.6773127917716,373.911021482184L560,330A0,0 0,0,1 560,330Z" style="pointer-events: none; stroke-width: 1; fill: rgb(255, 219, 192); fill-opacity: 1; stroke: rgb(255, 255, 255); stroke-opacity: 1;"/><g class="slicetext"><text data-notex="1" class="slicetext" text-anchor="middle" x="0" y="0" style="font-family: 'Open Sans', verdana, arial, sans-serif; font-size: 12px; fill: rgb(68, 68, 68); fill-opacity: 1; white-space: pre;" transform="translate(661.2624673926337,377.61291265445703)scale(0.5583776201714927)rotate(23.89588100686501)">Italy</text></g></g><g class="slice cursor-pointer"><path class="surface" d="M560,330L671.6773127917716,373.911021482184A120,120 0,0,0 674.1504548965712,367.0091022169663L560,330A0,0 0,0,1 560,330Z" style="pointer-events: none; stroke-width: 1; fill: rgb(122, 230, 248); fill-opacity: 1; stroke: rgb(255, 255, 255); stroke-opacity: 1;"/><g class="slicetext"><text data-notex="1" class="slicetext" text-anchor="middle" x="0" y="0" style="font-family: 'Open Sans', verdana, arial, sans-serif; font-size: 12px; fill: rgb(68, 68, 68); fill-opacity: 1; white-space: pre;" transform="translate(664.3789549658366,369.30937352873906)scale(0.3990659958497493)rotate(19.713958810068732)">Turkey</text></g></g><g class="slice cursor-pointer"><path class="surface" d="M560,330L674.1504548965712,367.0091022169663A120,120 0,0,0 676.185512850955,360.0154394197482L560,330A0,0 0,0,1 560,330Z" style="pointer-events: none; stroke-width: 1; fill: rgb(255, 204, 219); fill-opacity: 1; stroke: rgb(255, 255, 255); stroke-opacity: 1;"/><g class="slicetext"><text data-notex="1" class="slicetext" text-anchor="middle" x="0" y="0" style="font-family: 'Open Sans', verdana, arial, sans-serif; font-size: 12px; fill: rgb(68, 68, 68); fill-opacity: 1; white-space: pre;" transform="translate(669.4023040880195,363.7996516959227)scale(0.41930073424179265)rotate(16.22425629290626)">Iran</text></g></g><g class="slice cursor-pointer"><path class="surface" d="M560,330L676.185512850955,360.0154394197482A120,120 0,0,0 677.7833578474205,352.95823630391686L560,330A0,0 0,0,1 560,330Z" style="pointer-events: none; stroke-width: 1; fill: rgb(232, 248, 214); fill-opacity: 1; stroke: rgb(255, 255, 255); stroke-opacity: 1;"/><g class="slicetext"><text data-notex="1" class="slicetext" text-anchor="middle" x="0" y="0" style="font-family: 'Open Sans', verdana, arial, sans-serif; font-size: 12px; fill: rgb(68, 68, 68); fill-opacity: 1; white-space: pre;" transform="translate(667.5969233689494,356.1500955057068)scale(0.3876797427617814)rotate(12.757437070938295)">Norway</text></g></g><g class="slice cursor-pointer"><path class="surface" d="M560,330L677.7833578474205,352.95823630391686A120,120 0,0,0 678.8026363296902,346.90957128715445L560,330A0,0 0,0,1 560,330Z" style="pointer-events: none; stroke-width: 1; fill: rgb(255, 253, 255); fill-opacity: 1; stroke: rgb(255, 255, 255); stroke-opacity: 1;"/><g class="slicetext"><text data-notex="1" class="slicetext" text-anchor="middle" x="0" y="0" style="font-family: 'Open Sans', verdana, arial, sans-serif; font-size: 12px; fill: rgb(68, 68, 68); fill-opacity: 1; white-space: pre;" transform="translate(669.2092796417046,349.91097642876673)scale(0.3304075662272025)rotate(9.565217391304373)">Malaysia</text></g></g><g class="slice cursor-pointer"><path class="surface" d="M560,330L678.8026363296902,346.90957128715445A120,120 0,0,0 679.4763287856248,341.19852043393644L560,330A0,0 0,0,1 560,330Z" style="pointer-events: none; stroke-width: 1; fill: rgb(255, 233, 183); fill-opacity: 1; stroke: rgb(255, 255, 255); stroke-opacity: 1;"/><g class="slicetext"><text data-notex="1" class="slicetext" text-anchor="middle" x="0" y="0" style="font-family: 'Open Sans', verdana, arial, sans-serif; font-size: 12px; fill: rgb(68, 68, 68); fill-opacity: 1; white-space: pre;" transform="translate(668.8810969133085,344.2143100835528)scale(0.3024305686019966)rotate(6.7276887871854)">Philippines</text></g></g><g class="slice cursor-pointer"><path class="surface" d="M560,330L679.4763287856248,341.19852043393644A120,120 0,0,0 679.8701276767631,335.58144163783015L560,330A0,0 0,0,1 560,330Z" style="pointer-events: none; stroke-width: 1; fill: rgb(8, 25, 239); fill-opacity: 1; stroke: rgb(255, 255, 255); stroke-opacity: 1;"/><g class="slicetext"><text data-notex="1" class="slicetext" text-anchor="middle" x="0" y="0" style="font-family: 'Open Sans', verdana, arial, sans-serif; font-size: 12px; fill: rgb(255, 255, 255); fill-opacity: 1; white-space: pre;" transform="translate(672.6121327296728,339.31640972847896)scale(0.3151074240460139)rotate(4.0102974828375295)">Greece</text></g></g><g class="slice cursor-pointer"><path class="surface" d="M560,330L679.8701276767631,335.58144163783015A120,120 0,0,0 680,330.00000000000006L560,330A0,0 0,0,1 560,330Z" style="pointer-events: none; stroke-width: 1; fill: rgb(181, 39, 15); fill-opacity: 1; stroke: rgb(255, 255, 255); stroke-opacity: 1;"/><g class="slicetext"><text data-notex="1" class="slicetext" text-anchor="middle" x="0" y="0" style="font-family: 'Open Sans', verdana, arial, sans-serif; font-size: 12px; fill: rgb(255, 255, 255); fill-opacity: 1; white-space: pre;" transform="translate(671.0500239158077,333.94045586739446)scale(0.3013578677515201)rotate(1.332951945080083)">Colombia</text></g></g><g class="slice"><path class="surface" d="M680,330L800,330A240,240 0,0,0 438.75698965806623,122.87652850720721L499.3784948290331,226.43826425360362A120,120 0,0,1 680,330Z" style="pointer-events: none; stroke-width: 1; fill: rgb(99, 110, 250); fill-opacity: 1; stroke: rgb(255, 255, 255); stroke-opacity: 1; opacity: 0.7;"/><g class="slicetext"><text data-notex="1" class="slicetext" text-anchor="middle" x="0" y="0" style="font-family: 'Open Sans', verdana, arial, sans-serif; font-size: 12px; fill: rgb(255, 255, 255); fill-opacity: 1; white-space: pre;" transform="translate(649.5326577396174,178.346539589798)">United States</text></g></g><g class="slice"><path class="surface" d="M499.3784948290331,226.43826425360362L438.75698965806623,122.87652850720721A240,240 0,0,0 423.8374548334792,132.36457480053025L491.9187274167396,231.18228740026512A120,120 0,0,1 499.3784948290331,226.43826425360362Z" style="pointer-events: none; stroke-width: 1; fill: rgb(99, 110, 250); fill-opacity: 1; stroke: rgb(255, 255, 255); stroke-opacity: 1; opacity: 0.7;"/><g class="slicetext"><text data-notex="1" class="slicetext" text-anchor="middle" x="0" y="0" style="font-family: 'Open Sans', verdana, arial, sans-serif; font-size: 12px; fill: rgb(255, 255, 255); fill-opacity: 1; white-space: pre;" transform="translate(438.4794781180135,146.9304678987468)scale(0.9559254768072685)rotate(57.54576659038901)">Mexico</text></g></g><g class="slice"><path class="surface" d="M491.9187274167396,231.18228740026512L423.8374548334792,132.36457480053025A240,240 0,0,0 409.84378605166637,142.77523824904395L484.9218930258332,236.38761912452196A120,120 0,0,1 491.9187274167396,231.18228740026512Z" style="pointer-events: none; stroke-width: 1; fill: rgb(99, 110, 250); fill-opacity: 1; stroke: rgb(255, 255, 255); stroke-opacity: 1; opacity: 0.7;"/><g class="slicetext"><text data-notex="1" class="slicetext" text-anchor="middle" x="0" y="0" style="font-family: 'Open Sans', verdana, arial, sans-serif; font-size: 12px; fill: rgb(255, 255, 255); fill-opacity: 1; white-space: pre;" transform="translate(426.29028973492404,157.28747148185946)scale(0.9305715909430761)rotate(53.35240274599539)">Canada</text></g></g><g class="slice"><path class="surface" d="M484.92189302583324,236.38761912452193L409.8437860516665,142.77523824904387A240,240 0,0,0 346.95166334015437,440.500706995354L453.4758316700772,385.250353497677A120,120 0,0,1 484.92189302583324,236.38761912452193Z" style="pointer-events: none; stroke-width: 1; fill: rgb(239, 85, 59); fill-opacity: 1; stroke: rgb(255, 255, 255); stroke-opacity: 1; opacity: 0.7;"/><g class="slicetext"><text data-notex="1" class="slicetext" text-anchor="middle" x="0" y="0" style="font-family: 'Open Sans', verdana, arial, sans-serif; font-size: 12px; fill: rgb(68, 68, 68); fill-opacity: 1; white-space: pre;" transform="translate(383.88648889031936,297.2974301341912)">China</text></g></g><g class="slice"><path class="surface" d="M453.4758316700772,385.250353497677L346.95166334015437,440.500706995354A240,240 0,0,0 378.2297740328445,486.71497998547943L469.11488701642224,408.3574899927397A120,120 0,0,1 453.4758316700772,385.250353497677Z" style="pointer-events: none; stroke-width: 1; fill: rgb(0, 204, 150); fill-opacity: 1; stroke: rgb(255, 255, 255); stroke-opacity: 1; opacity: 0.7;"/><g class="slicetext"><text data-notex="1" class="slicetext" text-anchor="middle" x="0" y="0" style="font-family: 'Open Sans', verdana, arial, sans-serif; font-size: 12px; fill: rgb(68, 68, 68); fill-opacity: 1; white-space: pre;" transform="translate(381.9434821967594,455.0097713988638)">Canada</text></g></g><g class="slice"><path class="surface" d="M469.11488701642224,408.3574899927397L378.2297740328445,486.71497998547943A240,240 0,0,0 390.057313525311,499.46823688752283L475.0286567626555,414.7341184437614A120,120 0,0,1 469.11488701642224,408.3574899927397Z" style="pointer-events: none; stroke-width: 1; fill: rgb(0, 204, 150); fill-opacity: 1; stroke: rgb(255, 255, 255); stroke-opacity: 1; opacity: 0.7;"/><g class="slicetext"><text data-notex="1" class="slicetext" text-anchor="middle" x="0" y="0" style="font-family: 'Open Sans', verdana, arial, sans-serif; font-size: 12px; fill: rgb(68, 68, 68); fill-opacity: 1; white-space: pre;" transform="translate(411.4345242526553,472.76039582769266)scale(0.8112317682535882)rotate(-42.84324942791761)">United States</text></g></g><g class="slice"><path class="surface" d="M475.0286567626555,414.7341184437614L390.057313525311,499.46823688752283A240,240 0,0,0 410.74281290685565,517.942257358589L485.3714064534278,423.9711286792945A120,120 0,0,1 475.0286567626555,414.7341184437614Z" style="pointer-events: none; stroke-width: 1; fill: rgb(171, 99, 250); fill-opacity: 1; stroke: rgb(255, 255, 255); stroke-opacity: 1; opacity: 0.7;"/><g class="slicetext"><text data-notex="1" class="slicetext" text-anchor="middle" x="0" y="0" style="font-family: 'Open Sans', verdana, arial, sans-serif; font-size: 12px; fill: rgb(68, 68, 68); fill-opacity: 1; white-space: pre;" transform="translate(420.16861745487523,493.3258635774134)rotate(-48.23226544622423)">Spain</text></g></g><g class="slice"><path class="surface" d="M485.3714064534278,423.9711286792945L410.74281290685565,517.942257358589A240,240 0,0,0 430.70470197023644,532.194772205897L495.3523509851182,431.0973861029485A120,120 0,0,1 485.3714064534278,423.9711286792945Z" style="pointer-events: none; stroke-width: 1; fill: rgb(171, 99, 250); fill-opacity: 1; stroke: rgb(255, 255, 255); stroke-opacity: 1; opacity: 0.7;"/><g class="slicetext"><text data-notex="1" class="slicetext" text-anchor="middle" x="0" y="0" style="font-family: 'Open Sans', verdana, arial, sans-serif; font-size: 12px; fill: rgb(68, 68, 68); fill-opacity: 1; white-space: pre;" transform="translate(451.7779423216766,489.0301299609614)scale(0.9627419219616413)rotate(-54.473684210526244)">United Kingdom</text></g></g><g class="slice"><path class="surface" d="M495.3523509851182,431.0973861029485L430.70470197023644,532.194772205897A240,240 0,0,0 445.2671512373449,540.7993676812284L502.63357561867247,435.3996838406142A120,120 0,0,1 495.3523509851182,431.0973861029485Z" style="pointer-events: none; stroke-width: 1; fill: rgb(171, 99, 250); fill-opacity: 1; stroke: rgb(255, 255, 255); stroke-opacity: 1; opacity: 0.7;"/><g class="slicetext"><text data-notex="1" class="slicetext" text-anchor="middle" x="0" y="0" style="font-family: 'Open Sans', verdana, arial, sans-serif; font-size: 12px; fill: rgb(68, 68, 68); fill-opacity: 1; white-space: pre;" transform="translate(453.8853189497857,517.3172499031328)scale(0.873662949360562)rotate(-59.42219679633865)">Germany</text></g></g><g class="slice"><path class="surface" d="M502.63357561867247,435.3996838406142L445.2671512373449,540.7993676812284A240,240 0,0,0 498.34648872144203,561.9457793257396L529.173244360721,445.9728896628698A120,120 0,0,1 502.63357561867247,435.3996838406142Z" style="pointer-events: none; stroke-width: 1; fill: rgb(255, 161, 90); fill-opacity: 1; stroke: rgb(255, 255, 255); stroke-opacity: 1; opacity: 0.7;"/><g class="slicetext"><text data-notex="1" class="slicetext" text-anchor="middle" x="0" y="0" style="font-family: 'Open Sans', verdana, arial, sans-serif; font-size: 12px; fill: rgb(68, 68, 68); fill-opacity: 1; white-space: pre;" transform="translate(480.62379416648406,533.7411993331232)">Brazil</text></g></g><g class="slice"><path class="surface" d="M529.173244360721,445.9728896628698L498.34648872144203,561.9457793257396A240,240 0,0,0 548.3105213694587,569.7151561527684L554.1552606847293,449.8575780763842A120,120 0,0,1 529.173244360721,445.9728896628698Z" style="pointer-events: none; stroke-width: 1; fill: rgb(25, 211, 243); fill-opacity: 1; stroke: rgb(255, 255, 255); stroke-opacity: 1; opacity: 0.7;"/><g class="slicetext"><text data-notex="1" class="slicetext" text-anchor="middle" x="0" y="0" style="font-family: 'Open Sans', verdana, arial, sans-serif; font-size: 12px; fill: rgb(68, 68, 68); fill-opacity: 1; white-space: pre;" transform="translate(526.6377876571737,549.0488246763971)">India</text></g></g><g class="slice"><path class="surface" d="M554.1552606847293,449.8575780763842L548.3105213694587,569.7151561527684A240,240 0,0,0 594.3884262999561,567.5235485938447L577.194213149978,448.76177429692234A120,120 0,0,1 554.1552606847293,449.8575780763842Z" style="pointer-events: none; stroke-width: 1; fill: rgb(255, 102, 146); fill-opacity: 1; stroke: rgb(255, 255, 255); stroke-opacity: 1; opacity: 0.7;"/><g class="slicetext"><text data-notex="1" class="slicetext" text-anchor="middle" x="0" y="0" style="font-family: 'Open Sans', verdana, arial, sans-serif; font-size: 12px; fill: rgb(68, 68, 68); fill-opacity: 1; white-space: pre;" transform="translate(570.4025256715536,553.2100455002551)">Russia</text></g></g><g class="slice"><path class="surface" d="M577.194213149978,448.76177429692234L594.3884262999561,567.5235485938447A240,240 0,0,0 621.4682185156336,561.9949527737928L590.7341092578167,445.9974763868964A120,120 0,0,1 577.194213149978,448.76177429692234Z" style="pointer-events: none; stroke-width: 1; fill: rgb(182, 232, 128); fill-opacity: 1; stroke: rgb(255, 255, 255); stroke-opacity: 1; opacity: 0.7;"/><g class="slicetext"><text data-notex="1" class="slicetext" text-anchor="middle" x="0" y="0" style="font-family: 'Open Sans', verdana, arial, sans-serif; font-size: 12px; fill: rgb(68, 68, 68); fill-opacity: 1; white-space: pre;" transform="translate(597.7827725634191,537.5612715947365)rotate(78.46109839816927)">Mexico</text></g></g><g class="slice"><path class="surface" d="M590.7341092578167,445.9974763868964L621.4682185156336,561.9949527737928A240,240 0,0,0 638.5621853155278,556.7773865235436L599.2810926577639,443.3886932617718A120,120 0,0,1 590.7341092578167,445.9974763868964Z" style="pointer-events: none; stroke-width: 1; fill: rgb(182, 232, 128); fill-opacity: 1; stroke: rgb(255, 255, 255); stroke-opacity: 1; opacity: 0.7;"/><g class="slicetext"><text data-notex="1" class="slicetext" text-anchor="middle" x="0" y="0" style="font-family: 'Open Sans', verdana, arial, sans-serif; font-size: 12px; fill: rgb(68, 68, 68); fill-opacity: 1; white-space: pre;" transform="translate(616.385050213228,527.4806005510259)scale(0.8271415626588277)rotate(73.02631578947376)">United States</text></g></g><g class="slice"><path class="surface" d="M599.2810926577639,443.3886932617718L638.5621853155278,556.7773865235436A240,240 0,0,0 661.558673527863,547.4530658125126L610.7793367639315,438.7265329062563A120,120 0,0,1 599.2810926577639,443.3886932617718Z" style="pointer-events: none; stroke-width: 1; fill: rgb(255, 151, 255); fill-opacity: 1; stroke: rgb(255, 255, 255); stroke-opacity: 1; opacity: 0.7;"/><g class="slicetext"><text data-notex="1" class="slicetext" text-anchor="middle" x="0" y="0" style="font-family: 'Open Sans', verdana, arial, sans-serif; font-size: 12px; fill: rgb(68, 68, 68); fill-opacity: 1; white-space: pre;" transform="translate(637.4132603681245,532.8995392213474)rotate(67.92906178489716)">Spain</text></g></g><g class="slice"><path class="surface" d="M610.7793367639315,438.7265329062563L661.558673527863,547.4530658125126A240,240 0,0,0 674.7749419327013,540.7764519683L617.3874709663506,435.38822598415A120,120 0,0,1 610.7793367639315,438.7265329062563Z" style="pointer-events: none; stroke-width: 1; fill: rgb(255, 151, 255); fill-opacity: 1; stroke: rgb(255, 255, 255); stroke-opacity: 1; opacity: 0.7;"/><g class="slicetext"><text data-notex="1" class="slicetext" text-anchor="middle" x="0" y="0" style="font-family: 'Open Sans', verdana, arial, sans-serif; font-size: 12px; fill: rgb(68, 68, 68); fill-opacity: 1; white-space: pre;" transform="translate(650.0634236097685,515.1588480303351)scale(0.6893403630920247)rotate(63.19794050343262)">United Kingdom</text></g></g><g class="slice"><path class="surface" d="M617.3874709663506,435.38822598415L674.7749419327013,540.7764519683A240,240 0,0,0 705.9315814981574,520.5360163366671L632.9657907490787,425.26800816833355A120,120 0,0,1 617.3874709663506,435.38822598415Z" style="pointer-events: none; stroke-width: 1; fill: rgb(254, 203, 82); fill-opacity: 1; stroke: rgb(255, 255, 255); stroke-opacity: 1; opacity: 0.7;"/><g class="slicetext"><text data-notex="1" class="slicetext" text-anchor="middle" x="0" y="0" style="font-family: 'Open Sans', verdana, arial, sans-serif; font-size: 12px; fill: rgb(68, 68, 68); fill-opacity: 1; white-space: pre;" transform="translate(663.778366169909,498.0091134972002)rotate(56.99084668192222)">Australia</text></g></g><g class="slice"><path class="surface" d="M632.9657907490787,425.26800816833355L705.9315814981574,520.5360163366671A240,240 0,0,0 728.4471036739566,500.95488663344884L644.2235518369782,415.4774433167244A120,120 0,0,1 632.9657907490787,425.26800816833355Z" style="pointer-events: none; stroke-width: 1; fill: rgb(198, 202, 253); fill-opacity: 1; stroke: rgb(255, 255, 255); stroke-opacity: 1; opacity: 0.7;"/><g class="slicetext"><text data-notex="1" class="slicetext" text-anchor="middle" x="0" y="0" style="font-family: 'Open Sans', verdana, arial, sans-serif; font-size: 12px; fill: rgb(68, 68, 68); fill-opacity: 1; white-space: pre;" transform="translate(696.2201489187071,493.4912588325087)rotate(48.987414187643026)">Japan</text></g></g><g class="slice"><path class="surface" d="M644.2235518369782,415.4774433167244L728.4471036739566,500.95488663344884A240,240 0,0,0 748.001854023072,479.18211314996006L654.0009270115361,404.59105657498003A120,120 0,0,1 644.2235518369782,415.4774433167244Z" style="pointer-events: none; stroke-width: 1; fill: rgb(247, 167, 153); fill-opacity: 1; stroke: rgb(255, 255, 255); stroke-opacity: 1; opacity: 0.7;"/><g class="slicetext"><text data-notex="1" class="slicetext" text-anchor="middle" x="0" y="0" style="font-family: 'Open Sans', verdana, arial, sans-serif; font-size: 12px; fill: rgb(68, 68, 68); fill-opacity: 1; white-space: pre;" transform="translate(706.4775375176158,467.60416471472536)rotate(41.92791762013735)">Indonesia</text></g></g><g class="slice"><path class="surface" d="M654.0009270115361,404.59105657498003L748.001854023072,479.18211314996006A240,240 0,0,0 758.0694700694896,465.5303841446322L659.0347350347448,397.7651920723161A120,120 0,0,1 654.0009270115361,404.59105657498003Z" style="pointer-events: none; stroke-width: 1; fill: rgb(51, 255, 201); fill-opacity: 1; stroke: rgb(255, 255, 255); stroke-opacity: 1; opacity: 0.7;"/><g class="slicetext"><text data-notex="1" class="slicetext" text-anchor="middle" x="0" y="0" style="font-family: 'Open Sans', verdana, arial, sans-serif; font-size: 12px; fill: rgb(68, 68, 68); fill-opacity: 1; white-space: pre;" transform="translate(737.2633901643201,466.0434845982899)scale(0.951235689969015)rotate(36.40732265446229)">Spain</text></g></g><g class="slice"><path class="surface" d="M659.0347350347448,397.7651920723161L758.0694700694896,465.5303841446322A240,240 0,0,0 763.8559627707366,456.6599638513136L661.9279813853683,393.3299819256568A120,120 0,0,1 659.0347350347448,397.7651920723161Z" style="pointer-events: none; stroke-width: 1; fill: rgb(51, 255, 201); fill-opacity: 1; stroke: rgb(255, 255, 255); stroke-opacity: 1; opacity: 0.7;"/><g class="slicetext"><text data-notex="1" class="slicetext" text-anchor="middle" x="0" y="0" style="font-family: 'Open Sans', verdana, arial, sans-serif; font-size: 12px; fill: rgb(68, 68, 68); fill-opacity: 1; white-space: pre;" transform="translate(751.9083350057788,458.61162240323745)scale(0.6370851277578473)rotate(33.11784897025177)">Italy</text></g></g><g class="slice"><path class="surface" d="M661.9279813853683,393.3299819256568L763.8559627707366,456.6599638513136A240,240 0,0,0 775.106179877103,436.4393319157885L667.5530899385515,383.2196659578943A120,120 0,0,1 661.9279813853683,393.3299819256568Z" style="pointer-events: none; stroke-width: 1; fill: rgb(224, 198, 253); fill-opacity: 1; stroke: rgb(255, 255, 255); stroke-opacity: 1; opacity: 0.7;"/><g class="slicetext"><text data-notex="1" class="slicetext" text-anchor="middle" x="0" y="0" style="font-family: 'Open Sans', verdana, arial, sans-serif; font-size: 12px; fill: rgb(68, 68, 68); fill-opacity: 1; white-space: pre;" transform="translate(745.9253669819244,438.5934888531644)rotate(29.09038901601832)">France</text></g></g><g class="slice"><path class="surface" d="M667.5530899385515,383.2196659578943L775.106179877103,436.4393319157885A240,240 0,0,0 783.354625583543,417.82204296436805L671.6773127917716,373.911021482184A120,120 0,0,1 667.5530899385515,383.2196659578943Z" style="pointer-events: none; stroke-width: 1; fill: rgb(255, 219, 192); fill-opacity: 1; stroke: rgb(255, 255, 255); stroke-opacity: 1; opacity: 0.7;"/><g class="slicetext"><text data-notex="1" class="slicetext" text-anchor="middle" x="0" y="0" style="font-family: 'Open Sans', verdana, arial, sans-serif; font-size: 12px; fill: rgb(68, 68, 68); fill-opacity: 1; white-space: pre;" transform="translate(762.7377610675411,424.74546227634244)rotate(23.89588100686501)">Italy</text></g></g><g class="slice"><path class="surface" d="M671.6773127917716,373.911021482184L783.354625583543,417.82204296436805A240,240 0,0,0 788.3009097931424,404.0182044339327L674.1504548965712,367.0091022169663A120,120 0,0,1 671.6773127917716,373.911021482184Z" style="pointer-events: none; stroke-width: 1; fill: rgb(122, 230, 248); fill-opacity: 1; stroke: rgb(255, 255, 255); stroke-opacity: 1; opacity: 0.7;"/><g class="slicetext"><text data-notex="1" class="slicetext" text-anchor="middle" x="0" y="0" style="font-family: 'Open Sans', verdana, arial, sans-serif; font-size: 12px; fill: rgb(68, 68, 68); fill-opacity: 1; white-space: pre;" transform="translate(768.726027482853,408.7077229749176)scale(0.8191354651652748)rotate(19.713958810068732)">Turkey</text></g></g><g class="slice"><path class="surface" d="M674.1504548965712,367.0091022169663L788.3009097931424,404.0182044339327A240,240 0,0,0 792.37102570191,390.0308788394963L676.185512850955,360.0154394197482A120,120 0,0,1 674.1504548965712,367.0091022169663Z" style="pointer-events: none; stroke-width: 1; fill: rgb(255, 204, 219); fill-opacity: 1; stroke: rgb(255, 255, 255); stroke-opacity: 1; opacity: 0.7;"/><g class="slicetext"><text data-notex="1" class="slicetext" text-anchor="middle" x="0" y="0" style="font-family: 'Open Sans', verdana, arial, sans-serif; font-size: 12px; fill: rgb(68, 68, 68); fill-opacity: 1; white-space: pre;" transform="translate(778.776861737673,397.69465656512375)scale(0.8606699281805219)rotate(16.22425629290626)">Iran</text></g></g><g class="slice"><path class="surface" d="M676.185512850955,360.0154394197482L792.37102570191,390.0308788394963A240,240 0,0,0 795.566715694841,375.9164726078337L677.7833578474205,352.95823630391686A120,120 0,0,1 676.185512850955,360.0154394197482Z" style="pointer-events: none; stroke-width: 1; fill: rgb(232, 248, 214); fill-opacity: 1; stroke: rgb(255, 255, 255); stroke-opacity: 1; opacity: 0.7;"/><g class="slicetext"><text data-notex="1" class="slicetext" text-anchor="middle" x="0" y="0" style="font-family: 'Open Sans', verdana, arial, sans-serif; font-size: 12px; fill: rgb(68, 68, 68); fill-opacity: 1; white-space: pre;" transform="translate(775.173570921003,382.38974322610954)scale(0.795763682511025)rotate(12.757437070938295)">Norway</text></g></g><g class="slice"><path class="surface" d="M677.7833578474205,352.95823630391686L795.566715694841,375.9164726078337A240,240 0,0,0 797.6052726593805,363.81914257430884L678.8026363296902,346.90957128715445A120,120 0,0,1 677.7833578474205,352.95823630391686Z" style="pointer-events: none; stroke-width: 1; fill: rgb(255, 253, 255); fill-opacity: 1; stroke: rgb(255, 255, 255); stroke-opacity: 1; opacity: 0.7;"/><g class="slicetext"><text data-notex="1" class="slicetext" text-anchor="middle" x="0" y="0" style="font-family: 'Open Sans', verdana, arial, sans-serif; font-size: 12px; fill: rgb(68, 68, 68); fill-opacity: 1; white-space: pre;" transform="translate(778.4055557343881,369.8991193173635)scale(0.6782050043611)rotate(9.565217391304373)">Malaysia</text></g></g><g class="slice"><path class="surface" d="M678.8026363296902,346.90957128715445L797.6052726593805,363.81914257430884A240,240 0,0,0 798.9526575712496,352.3970408678729L679.4763287856248,341.19852043393644A120,120 0,0,1 678.8026363296902,346.90957128715445Z" style="pointer-events: none; stroke-width: 1; fill: rgb(255, 233, 183); fill-opacity: 1; stroke: rgb(255, 255, 255); stroke-opacity: 1; opacity: 0.7;"/><g class="slicetext"><text data-notex="1" class="slicetext" text-anchor="middle" x="0" y="0" style="font-family: 'Open Sans', verdana, arial, sans-serif; font-size: 12px; fill: rgb(68, 68, 68); fill-opacity: 1; white-space: pre;" transform="translate(777.7538025231776,358.4997552380774)scale(0.6207785355514666)rotate(6.7276887871854)">Philippines</text></g></g><g class="slice"><path class="surface" d="M679.4763287856248,341.19852043393644L798.9526575712496,352.3970408678729A240,240 0,0,0 799.7402553535262,341.16288327566036L679.8701276767631,335.58144163783015A120,120 0,0,1 679.4763287856248,341.19852043393644Z" style="pointer-events: none; stroke-width: 1; fill: rgb(8, 25, 239); fill-opacity: 1; stroke: rgb(255, 255, 255); stroke-opacity: 1; opacity: 0.7;"/><g class="slicetext"><text data-notex="1" class="slicetext" text-anchor="middle" x="0" y="0" style="font-family: 'Open Sans', verdana, arial, sans-serif; font-size: 12px; fill: rgb(255, 255, 255); fill-opacity: 1; white-space: pre;" transform="translate(785.2190461042388,348.7072674291588)scale(0.6467994493576075)rotate(4.0102974828375295)">Greece</text></g></g><g class="slice"><path class="surface" d="M679.8701276767631,335.58144163783015L799.7402553535262,341.16288327566036A240,240 0,0,0 800,330.00000000000006L680,330.00000000000006A120,120 0,0,1 679.8701276767631,335.58144163783015Z" style="pointer-events: none; stroke-width: 1; fill: rgb(181, 39, 15); fill-opacity: 1; stroke: rgb(255, 255, 255); stroke-opacity: 1; opacity: 0.7;"/><g class="slicetext"><text data-notex="1" class="slicetext" text-anchor="middle" x="0" y="0" style="font-family: 'Open Sans', verdana, arial, sans-serif; font-size: 12px; fill: rgb(255, 255, 255); fill-opacity: 1; white-space: pre;" transform="translate(782.0983875027014,337.9522666524755)scale(0.6185766759110151)rotate(1.332951945080083)">Colombia</text></g></g></g></g><g class="glimages"/><defs id="topdefs-fafef7"><g class="clips"/></defs><g class="layer-above"><g class="imagelayer"/><g class="shapelayer"/></g><g class="infolayer"><g class="g-gtitle"><text class="gtitle" x="55" y="45" text-anchor="start" dy="0em" style="opacity: 1; font-family: 'Open Sans', verdana, arial, sans-serif; font-size: 17px; fill: rgb(42, 63, 95); fill-opacity: 1; white-space: pre;">Top Country-to-Country Route Flows</text></g></g></svg>